<?xml version="1.0" encoding="UTF-8" standalone="no"?>
<!-- Created with Inkscape (http://www.inkscape.org/) -->

<svg
   version="1.1"
   id="svg176"
   xml:space="preserve"
   width="144"
   height="144"
   viewBox="0 0 144 144"
   sodipodi:docname="heart.svg"
   inkscape:version="1.1.2 (b8e25be833, 2022-02-05)"
   xmlns:inkscape="http://www.inkscape.org/namespaces/inkscape"
   xmlns:sodipodi="http://sodipodi.sourceforge.net/DTD/sodipodi-0.dtd"
   xmlns="http://www.w3.org/2000/svg"
   xmlns:svg="http://www.w3.org/2000/svg"><defs
     id="defs180"><clipPath
       clipPathUnits="userSpaceOnUse"
       id="clipPath190"><path
         d="M 0,1.2207e-4 H 960 V 540.00012 H 0 Z"
         clip-rule="evenodd"
         id="path188" /></clipPath><clipPath
       clipPathUnits="userSpaceOnUse"
       id="clipPath202"><path
         d="m 40.68,443.76 h 69.96 v 57 H 40.68 Z"
         clip-rule="evenodd"
         id="path200" /></clipPath><clipPath
       clipPathUnits="userSpaceOnUse"
       id="clipPath212"><path
         d="M 0,0 H 243.55 V 199.14 H 0 Z"
         id="path210" /></clipPath><clipPath
       clipPathUnits="userSpaceOnUse"
       id="clipPath230"><path
         d="m 182.76,432.6 h 70.08 v 71.28 h -70.08 z"
         clip-rule="evenodd"
         id="path228" /></clipPath><clipPath
       clipPathUnits="userSpaceOnUse"
       id="clipPath240"><path
         d="M 0,0 H 165.36 V 168.02 H 0 Z"
         id="path238" /></clipPath><clipPath
       clipPathUnits="userSpaceOnUse"
       id="clipPath262"><path
         d="m 320.4,439.8 h 60 v 57 h -60 z"
         clip-rule="evenodd"
         id="path260" /></clipPath><clipPath
       clipPathUnits="userSpaceOnUse"
       id="clipPath272"><path
         d="M 0,0 H 184.89 V 175.11 H 0 Z"
         id="path270" /></clipPath><clipPath
       clipPathUnits="userSpaceOnUse"
       id="clipPath292"><path
         d="m 450.72,443.04 h 58.56 v 50.4 h -58.56 z"
         clip-rule="evenodd"
         id="path290" /></clipPath><clipPath
       clipPathUnits="userSpaceOnUse"
       id="clipPath302"><path
         d="M 0,0 H 140.46 V 120.88 H 0 Z"
         id="path300" /></clipPath><clipPath
       clipPathUnits="userSpaceOnUse"
       id="clipPath320"><path
         d="M 589.08,428.16 H 630 v 72 h -40.92 z"
         clip-rule="evenodd"
         id="path318" /></clipPath><clipPath
       clipPathUnits="userSpaceOnUse"
       id="clipPath330"><path
         d="M 0,0 H 378.68 V 664.88 H 0 Z"
         id="path328" /></clipPath><clipPath
       clipPathUnits="userSpaceOnUse"
       id="clipPath350"><path
         d="m 737.64,428.16 h 46.08 v 72 h -46.08 z"
         clip-rule="evenodd"
         id="path348" /></clipPath><clipPath
       clipPathUnits="userSpaceOnUse"
       id="clipPath360"><path
         d="M 0,0 H 393.76 V 614.22 H 0 Z"
         id="path358" /></clipPath><clipPath
       clipPathUnits="userSpaceOnUse"
       id="clipPath292-8"><path
         d="m 450.72,443.04 h 58.56 v 50.4 h -58.56 z"
         clip-rule="evenodd"
         id="path290-3" /></clipPath><clipPath
       clipPathUnits="userSpaceOnUse"
       id="clipPath302-8"><path
         d="M 0,0 H 140.46 V 120.88 H 0 Z"
         id="path300-8" /></clipPath></defs><sodipodi:namedview
     id="namedview178"
     pagecolor="#ffffff"
     bordercolor="#666666"
     borderopacity="1.0"
     inkscape:pageshadow="2"
     inkscape:pageopacity="0.0"
     inkscape:pagecheckerboard="0"
     showgrid="false"
     inkscape:zoom="0.83046875"
     inkscape:cx="-810.98777"
     inkscape:cy="-199.88711"
     inkscape:window-width="3440"
     inkscape:window-height="1377"
     inkscape:window-x="-8"
     inkscape:window-y="-8"
     inkscape:window-maximized="1"
     inkscape:current-layer="g182" /><g
     id="g182"
     inkscape:groupmode="layer"
     inkscape:label="icons"
     transform="matrix(1.3333333,0,0,-1.3333333,-639.64629,590.90875)"><path
       d="m 479.73473,389.18157 c 0,29.82 24.18,54 54,54 29.82,0 54,-24.18 54,-54 0,-29.82 -24.18,-54 -54,-54 -29.82,0 -54,24.18 -54,54 z"
       style="fill:#b21dac;fill-opacity:1;fill-rule:evenodd;stroke:none"
       id="path284" /><g
       id="g286"
       transform="translate(53.734726,-79.058429)"><g
         id="g288"
         clip-path="url(#clipPath292-8)"><g
           id="g294"
           transform="matrix(0.81333,0,-3.77e-7,0.7,450.72,443.04)"><g
             id="g296"
             transform="scale(0.51258,0.59564)"><g
               id="g298"
               clip-path="url(#clipPath302-8)"><g
                 id="g304"><g
                   id="g306"><g
                     id="g308" /></g><path
                   d="M 69.944,0.89849 C 102.24,38.528 139.57,52.75 139.57,90.676 139.57,103.71 128.02,120.6 105.5,120.6 88.611,120.6 77.055,111.12 69.944,100.45 62.537,111.12 50.981,120.6 34.092,120.6 11.574,120.6 0.018036,103.71 0.018036,90.676 0.018036,52.75 37.351,38.528 69.944,0.89849 c 0,0 0,0 0,0"
                   style="fill:#ffffff;fill-opacity:1;fill-rule:nonzero;stroke:none"
                   id="path310" /></g></g></g></g></g></g></g></svg>
