<?xml version="1.0" encoding="UTF-8" standalone="no"?>
<!-- Created with Inkscape (http://www.inkscape.org/) -->

<svg
   version="1.1"
   id="svg176"
   xml:space="preserve"
   width="144"
   height="144"
   viewBox="0 0 144 144"
   sodipodi:docname="house.svg"
   inkscape:version="1.1.2 (b8e25be833, 2022-02-05)"
   xmlns:inkscape="http://www.inkscape.org/namespaces/inkscape"
   xmlns:sodipodi="http://sodipodi.sourceforge.net/DTD/sodipodi-0.dtd"
   xmlns="http://www.w3.org/2000/svg"
   xmlns:svg="http://www.w3.org/2000/svg"><defs
     id="defs180"><clipPath
       clipPathUnits="userSpaceOnUse"
       id="clipPath190"><path
         d="M 0,1.2207e-4 H 960 V 540.00012 H 0 Z"
         clip-rule="evenodd"
         id="path188" /></clipPath><clipPath
       clipPathUnits="userSpaceOnUse"
       id="clipPath202"><path
         d="m 40.68,443.76 h 69.96 v 57 H 40.68 Z"
         clip-rule="evenodd"
         id="path200" /></clipPath><clipPath
       clipPathUnits="userSpaceOnUse"
       id="clipPath212"><path
         d="M 0,0 H 243.55 V 199.14 H 0 Z"
         id="path210" /></clipPath><clipPath
       clipPathUnits="userSpaceOnUse"
       id="clipPath230"><path
         d="m 182.76,432.6 h 70.08 v 71.28 h -70.08 z"
         clip-rule="evenodd"
         id="path228" /></clipPath><clipPath
       clipPathUnits="userSpaceOnUse"
       id="clipPath240"><path
         d="M 0,0 H 165.36 V 168.02 H 0 Z"
         id="path238" /></clipPath><clipPath
       clipPathUnits="userSpaceOnUse"
       id="clipPath262"><path
         d="m 320.4,439.8 h 60 v 57 h -60 z"
         clip-rule="evenodd"
         id="path260" /></clipPath><clipPath
       clipPathUnits="userSpaceOnUse"
       id="clipPath272"><path
         d="M 0,0 H 184.89 V 175.11 H 0 Z"
         id="path270" /></clipPath><clipPath
       clipPathUnits="userSpaceOnUse"
       id="clipPath292"><path
         d="m 450.72,443.04 h 58.56 v 50.4 h -58.56 z"
         clip-rule="evenodd"
         id="path290" /></clipPath><clipPath
       clipPathUnits="userSpaceOnUse"
       id="clipPath302"><path
         d="M 0,0 H 140.46 V 120.88 H 0 Z"
         id="path300" /></clipPath><clipPath
       clipPathUnits="userSpaceOnUse"
       id="clipPath320"><path
         d="M 589.08,428.16 H 630 v 72 h -40.92 z"
         clip-rule="evenodd"
         id="path318" /></clipPath><clipPath
       clipPathUnits="userSpaceOnUse"
       id="clipPath330"><path
         d="M 0,0 H 378.68 V 664.88 H 0 Z"
         id="path328" /></clipPath><clipPath
       clipPathUnits="userSpaceOnUse"
       id="clipPath350"><path
         d="m 737.64,428.16 h 46.08 v 72 h -46.08 z"
         clip-rule="evenodd"
         id="path348" /></clipPath><clipPath
       clipPathUnits="userSpaceOnUse"
       id="clipPath360"><path
         d="M 0,0 H 393.76 V 614.22 H 0 Z"
         id="path358" /></clipPath><clipPath
       clipPathUnits="userSpaceOnUse"
       id="clipPath190-0"><path
         d="M 0,1.2207e-4 H 960 V 540.00012 H 0 Z"
         clip-rule="evenodd"
         id="path188-7" /></clipPath><clipPath
       clipPathUnits="userSpaceOnUse"
       id="clipPath202-1"><path
         d="m 40.68,443.76 h 69.96 v 57 H 40.68 Z"
         clip-rule="evenodd"
         id="path200-4" /></clipPath><clipPath
       clipPathUnits="userSpaceOnUse"
       id="clipPath212-2"><path
         d="M 0,0 H 243.55 V 199.14 H 0 Z"
         id="path210-4" /></clipPath></defs><sodipodi:namedview
     id="namedview178"
     pagecolor="#ffffff"
     bordercolor="#666666"
     borderopacity="1.0"
     inkscape:pageshadow="2"
     inkscape:pageopacity="0.0"
     inkscape:pagecheckerboard="0"
     showgrid="false"
     inkscape:zoom="0.83046875"
     inkscape:cx="403.98871"
     inkscape:cy="-62.61524"
     inkscape:window-width="3440"
     inkscape:window-height="1377"
     inkscape:window-x="-8"
     inkscape:window-y="-8"
     inkscape:window-maximized="1"
     inkscape:current-layer="g182" /><g
     id="g182"
     inkscape:groupmode="layer"
     inkscape:label="icons"
     transform="matrix(1.3333333,0,0,-1.3333333,425.60255,855.69206)"><path
       d="m -319.20192,587.76906 c 0,29.82 24.177,54 54,54 29.82,0 54,-24.18 54,-54 0,-29.82 -24.18,-54 -54,-54 -29.823,0 -54,24.18 -54,54 z"
       style="fill:#ffcd00;fill-opacity:1;fill-rule:evenodd;stroke:none"
       id="path194" /><g
       id="g196"
       transform="translate(-340.92192,115.56906)"><g
         id="g198"
         clip-path="url(#clipPath202-1)"><g
           id="g204"
           transform="matrix(0.97167,0,0,0.79167,40.68,443.76)"><g
             id="g206"
             transform="scale(0.29562,0.36156)"><g
               id="g208"
               clip-path="url(#clipPath212-2)"><g
                 id="g214"><g
                   id="g216"><g
                     id="g218" /></g><path
                   d="m 194.65,95.128 c -66.66,56.892 -66.66,56.892 -66.66,56.892 -3.56,2.66 -8.89,2.66 -12.45,0 C 47.986,95.128 47.986,95.128 47.986,95.128 45.319,92.461 43.541,89.795 44.43,86.239 c 0,-0.889 0,-0.889 0,-1.778 0,-74.6662 0,-74.6662 0,-74.6662 0,-1.7778 0.889,-4.4445 2.667,-6.2223 1.777,-1.7777 4.444,-2.66663 7.111,-2.66663 45.333,0 45.333,0 45.333,0 0,58.66713 0,58.66713 0,58.66713 0,5.333 4.449,10.666 9.779,10.666 24,0 24,0 24,0 5.33,0 9.78,-5.333 9.78,-10.666 0,-58.66713 0,-58.66713 0,-58.66713 46.22,0 46.22,0 46.22,0 1.78,0 4.44,0.88893 6.22,2.66663 1.78,1.7778 2.67,4.4445 2.67,6.2223 0,74.6662 0,74.6662 0,74.6662 0,0.889 0,0.889 0,1.778 0.89,3.556 -0.89,6.222 -3.56,8.889 z m 39.11,16.892 c -41.77,35.55 -41.77,35.55 -41.77,35.55 0,36.45 0,36.45 0,36.45 0,3.55 -2.67,6.22 -6.23,6.22 -12.44,0 -12.44,0 -12.44,0 -3.56,0 -6.22,-2.67 -6.22,-6.22 0,-16 0,-16 0,-16 -31.11,26.66 -31.11,26.66 -31.11,26.66 -8,6.23 -21.34,6.23 -29.34,0 C 8.8744,112.02 8.8744,112.02 8.8744,112.02 -2.6812,102.24 -2.6812,95.128 7.9855,95.128 c 19.5555,0 19.5555,0 19.5555,0 86.219,72.892 86.219,72.892 86.219,72.892 4.45,2.66 10.67,2.66 15.11,0 86.23,-72.892 86.23,-72.892 86.23,-72.892 0,0 8.89,0 19.55,0 10.67,0 10.67,7.112 -0.89,16.892 z"
                   style="fill:#ffffff;fill-opacity:1;fill-rule:nonzero;stroke:none"
                   id="path220" /></g></g></g></g></g></g></g></svg>
