<?xml version="1.0" encoding="UTF-8" standalone="no"?>
<!-- Created with Inkscape (http://www.inkscape.org/) -->

<svg
   version="1.1"
   id="svg176"
   xml:space="preserve"
   width="144"
   height="144"
   viewBox="0 0 144 144"
   sodipodi:docname="network.svg"
   inkscape:version="1.1.2 (b8e25be833, 2022-02-05)"
   xmlns:inkscape="http://www.inkscape.org/namespaces/inkscape"
   xmlns:sodipodi="http://sodipodi.sourceforge.net/DTD/sodipodi-0.dtd"
   xmlns="http://www.w3.org/2000/svg"
   xmlns:svg="http://www.w3.org/2000/svg"><defs
     id="defs180"><clipPath
       clipPathUnits="userSpaceOnUse"
       id="clipPath190"><path
         d="M 0,1.2207e-4 H 960 V 540.00012 H 0 Z"
         clip-rule="evenodd"
         id="path188" /></clipPath><clipPath
       clipPathUnits="userSpaceOnUse"
       id="clipPath202"><path
         d="m 40.68,443.76 h 69.96 v 57 H 40.68 Z"
         clip-rule="evenodd"
         id="path200" /></clipPath><clipPath
       clipPathUnits="userSpaceOnUse"
       id="clipPath212"><path
         d="M 0,0 H 243.55 V 199.14 H 0 Z"
         id="path210" /></clipPath><clipPath
       clipPathUnits="userSpaceOnUse"
       id="clipPath230"><path
         d="m 182.76,432.6 h 70.08 v 71.28 h -70.08 z"
         clip-rule="evenodd"
         id="path228" /></clipPath><clipPath
       clipPathUnits="userSpaceOnUse"
       id="clipPath240"><path
         d="M 0,0 H 165.36 V 168.02 H 0 Z"
         id="path238" /></clipPath><clipPath
       clipPathUnits="userSpaceOnUse"
       id="clipPath262"><path
         d="m 320.4,439.8 h 60 v 57 h -60 z"
         clip-rule="evenodd"
         id="path260" /></clipPath><clipPath
       clipPathUnits="userSpaceOnUse"
       id="clipPath272"><path
         d="M 0,0 H 184.89 V 175.11 H 0 Z"
         id="path270" /></clipPath><clipPath
       clipPathUnits="userSpaceOnUse"
       id="clipPath292"><path
         d="m 450.72,443.04 h 58.56 v 50.4 h -58.56 z"
         clip-rule="evenodd"
         id="path290" /></clipPath><clipPath
       clipPathUnits="userSpaceOnUse"
       id="clipPath302"><path
         d="M 0,0 H 140.46 V 120.88 H 0 Z"
         id="path300" /></clipPath><clipPath
       clipPathUnits="userSpaceOnUse"
       id="clipPath320"><path
         d="M 589.08,428.16 H 630 v 72 h -40.92 z"
         clip-rule="evenodd"
         id="path318" /></clipPath><clipPath
       clipPathUnits="userSpaceOnUse"
       id="clipPath330"><path
         d="M 0,0 H 378.68 V 664.88 H 0 Z"
         id="path328" /></clipPath><clipPath
       clipPathUnits="userSpaceOnUse"
       id="clipPath350"><path
         d="m 737.64,428.16 h 46.08 v 72 h -46.08 z"
         clip-rule="evenodd"
         id="path348" /></clipPath><clipPath
       clipPathUnits="userSpaceOnUse"
       id="clipPath360"><path
         d="M 0,0 H 393.76 V 614.22 H 0 Z"
         id="path358" /></clipPath><clipPath
       clipPathUnits="userSpaceOnUse"
       id="clipPath230-3"><path
         d="m 182.76,432.6 h 70.08 v 71.28 h -70.08 z"
         clip-rule="evenodd"
         id="path228-6" /></clipPath><clipPath
       clipPathUnits="userSpaceOnUse"
       id="clipPath240-2"><path
         d="M 0,0 H 165.36 V 168.02 H 0 Z"
         id="path238-8" /></clipPath></defs><sodipodi:namedview
     id="namedview178"
     pagecolor="#ffffff"
     bordercolor="#666666"
     borderopacity="1.0"
     inkscape:pageshadow="2"
     inkscape:pageopacity="0.0"
     inkscape:pagecheckerboard="0"
     showgrid="false"
     inkscape:zoom="0.83046875"
     inkscape:cx="307.65757"
     inkscape:cy="65.023518"
     inkscape:window-width="3440"
     inkscape:window-height="1377"
     inkscape:window-x="-8"
     inkscape:window-y="-8"
     inkscape:window-maximized="1"
     inkscape:current-layer="g182" /><g
     id="g182"
     inkscape:groupmode="layer"
     inkscape:label="icons"
     transform="matrix(1.3333333,0,0,-1.3333333,-96.579494,847.39041)"><path
       d="m 72.434622,581.54282 c 0,29.82 24.18,54 53.999998,54 29.82,0 54,-24.18 54,-54 0,-29.82 -24.18,-54 -54,-54 -29.819998,0 -53.999998,24.18 -53.999998,54 z"
       style="fill:#ed7d31;fill-opacity:1;fill-rule:evenodd;stroke:none"
       id="path222" /><g
       id="g224"
       transform="translate(-91.365378,113.30282)"><g
         id="g226"
         clip-path="url(#clipPath230-3)"><g
           id="g232"
           transform="matrix(0.97333,-3.77e-7,-1.88e-7,0.99,182.76,432.6)"><g
             id="g234"
             transform="scale(0.4354,0.42853)"><g
               id="g236"
               clip-path="url(#clipPath240-2)"><g
                 id="g242"><g
                   id="g244"><g
                     id="g246" /></g><path
                   d="m 82.686,141.05 c 7.408,0 13.334,5.92 13.334,13.33 0,7.41 -5.926,13.33 -13.334,13.33 -7.407,0 -13.333,-5.92 -13.333,-13.33 0,-7.41 5.926,-13.33 13.333,-13.33 z"
                   style="fill:#ffffff;fill-opacity:1;fill-rule:nonzero;stroke:none"
                   id="path248" /><path
                   d="m 82.686,50.972 c -7.407,0 -13.333,-5.926 -13.333,-13.334 0,-7.407 5.926,-13.333 13.333,-13.333 7.408,0 13.334,5.926 13.334,13.333 0,7.408 -5.926,13.334 -13.334,13.334 z"
                   style="fill:#ffffff;fill-opacity:1;fill-rule:nonzero;stroke:none"
                   id="path250" /><path
                   d="m 164.17,64.601 c 0,6.222 -5.04,11.556 -11.26,11.556 -10.08,0 -10.08,0 -10.08,0 -0.29,1.185 -0.29,2.37 -0.59,3.555 6.22,1.185 10.67,6.519 10.67,13.037 0,7.111 -5.93,13.041 -13.04,13.041 -2.66,0 -5.33,-0.6 -7.41,-2.08 -6.22,9.48 -14.81,16.89 -25.18,21.63 0,0.89 0,0.89 0,0.89 0,6.52 -5.33,11.56 -11.556,11.56 -26.371,0 -26.371,0 -26.371,0 -6.222,0 -11.259,-5.04 -11.259,-11.56 0,-0.59 0,-0.59 0,-0.59 -10.667,-4.74 -19.852,-12.45 -26.37,-22.22 -2.075,1.77 -4.741,2.37 -7.408,2.37 -7.407,0 -13.333,-5.93 -13.333,-13.041 0,-6.815 4.741,-12.148 11.259,-13.037 -0.296,-1.185 -0.296,-2.37 -0.593,-3.555 -10.666,0 -10.666,0 -10.666,0 -6.2224,0 -11.25943,-5.334 -11.25943,-11.556 0,-8.889 0,-8.889 0,-8.889 23.40743,0 23.40743,0 23.40743,0 4.444,-18.963 18.074,-34.666 35.555,-42.074 -0.296,-1.185 -0.592,-2.666 -0.592,-4.1479 0,-8.88892 0,-8.88892 0,-8.88892 49.186,0 49.186,0 49.186,0 0,8.88892 0,8.88892 0,8.88892 0,1.7779 -0.3,3.2589 -0.89,4.4449 17.19,7.407 30.52,22.814 34.96,41.777 22.82,0 22.82,0 22.82,0 z M 104.32,17.194 c -2.08,2.37 -5.041,3.852 -8.596,3.852 -26.371,0 -26.371,0 -26.371,0 -3.259,0 -6.518,-1.482 -8.592,-4.149 -16.593,6.815 -29.334,21.037 -33.778,38.815 21.629,0 21.629,0 21.629,0 0,8.889 0,8.889 0,8.889 0,6.222 -5.037,11.556 -11.259,11.556 -11.852,0 -11.852,0 -11.852,0 0,1.185 0.297,2.37 0.593,3.555 6.222,0.889 11.259,6.222 11.259,13.037 0,2.963 -0.889,5.926 -2.963,8.301 5.926,8.88 13.926,16 23.704,20.44 0,-4.15 0,-4.15 0,-4.15 49.186,0 49.186,0 49.186,0 0,3.85 0,3.85 0,3.85 9.18,-4.44 16.89,-11.26 22.52,-19.85 -2.08,-2.368 -3.26,-5.331 -3.26,-8.591 0,-7.111 5.33,-12.74 11.85,-13.333 0.3,-1.185 0.59,-2.074 0.59,-3.259 -12.44,0 -12.44,0 -12.44,0 -6.22,0 -11.26,-5.334 -11.26,-11.556 0,-8.889 0,-8.889 0,-8.889 22.22,0 22.22,0 22.22,0 -4.44,-17.481 -16.89,-31.703 -33.18,-38.518 z"
                   style="fill:#ffffff;fill-opacity:1;fill-rule:nonzero;stroke:none"
                   id="path252" /></g></g></g></g></g></g></g></svg>
