<?xml version="1.0" encoding="UTF-8" standalone="no"?>
<!-- Created with Inkscape (http://www.inkscape.org/) -->

<svg
   version="1.1"
   id="svg176"
   xml:space="preserve"
   width="144"
   height="144"
   viewBox="0 0 144 144"
   sodipodi:docname="child.svg"
   inkscape:version="1.1.2 (b8e25be833, 2022-02-05)"
   xmlns:inkscape="http://www.inkscape.org/namespaces/inkscape"
   xmlns:sodipodi="http://sodipodi.sourceforge.net/DTD/sodipodi-0.dtd"
   xmlns="http://www.w3.org/2000/svg"
   xmlns:svg="http://www.w3.org/2000/svg"><defs
     id="defs180"><clipPath
       clipPathUnits="userSpaceOnUse"
       id="clipPath190"><path
         d="M 0,1.2207e-4 H 960 V 540.00012 H 0 Z"
         clip-rule="evenodd"
         id="path188" /></clipPath><clipPath
       clipPathUnits="userSpaceOnUse"
       id="clipPath202"><path
         d="m 40.68,443.76 h 69.96 v 57 H 40.68 Z"
         clip-rule="evenodd"
         id="path200" /></clipPath><clipPath
       clipPathUnits="userSpaceOnUse"
       id="clipPath212"><path
         d="M 0,0 H 243.55 V 199.14 H 0 Z"
         id="path210" /></clipPath><clipPath
       clipPathUnits="userSpaceOnUse"
       id="clipPath230"><path
         d="m 182.76,432.6 h 70.08 v 71.28 h -70.08 z"
         clip-rule="evenodd"
         id="path228" /></clipPath><clipPath
       clipPathUnits="userSpaceOnUse"
       id="clipPath240"><path
         d="M 0,0 H 165.36 V 168.02 H 0 Z"
         id="path238" /></clipPath><clipPath
       clipPathUnits="userSpaceOnUse"
       id="clipPath262"><path
         d="m 320.4,439.8 h 60 v 57 h -60 z"
         clip-rule="evenodd"
         id="path260" /></clipPath><clipPath
       clipPathUnits="userSpaceOnUse"
       id="clipPath272"><path
         d="M 0,0 H 184.89 V 175.11 H 0 Z"
         id="path270" /></clipPath><clipPath
       clipPathUnits="userSpaceOnUse"
       id="clipPath292"><path
         d="m 450.72,443.04 h 58.56 v 50.4 h -58.56 z"
         clip-rule="evenodd"
         id="path290" /></clipPath><clipPath
       clipPathUnits="userSpaceOnUse"
       id="clipPath302"><path
         d="M 0,0 H 140.46 V 120.88 H 0 Z"
         id="path300" /></clipPath><clipPath
       clipPathUnits="userSpaceOnUse"
       id="clipPath320"><path
         d="M 589.08,428.16 H 630 v 72 h -40.92 z"
         clip-rule="evenodd"
         id="path318" /></clipPath><clipPath
       clipPathUnits="userSpaceOnUse"
       id="clipPath330"><path
         d="M 0,0 H 378.68 V 664.88 H 0 Z"
         id="path328" /></clipPath><clipPath
       clipPathUnits="userSpaceOnUse"
       id="clipPath350"><path
         d="m 737.64,428.16 h 46.08 v 72 h -46.08 z"
         clip-rule="evenodd"
         id="path348" /></clipPath><clipPath
       clipPathUnits="userSpaceOnUse"
       id="clipPath360"><path
         d="M 0,0 H 393.76 V 614.22 H 0 Z"
         id="path358" /></clipPath><clipPath
       clipPathUnits="userSpaceOnUse"
       id="clipPath350-1"><path
         d="m 737.64,428.16 h 46.08 v 72 h -46.08 z"
         clip-rule="evenodd"
         id="path348-0" /></clipPath><clipPath
       clipPathUnits="userSpaceOnUse"
       id="clipPath360-9"><path
         d="M 0,0 H 393.76 V 614.22 H 0 Z"
         id="path358-3" /></clipPath></defs><sodipodi:namedview
     id="namedview178"
     pagecolor="#ffffff"
     bordercolor="#666666"
     borderopacity="1.0"
     inkscape:pageshadow="2"
     inkscape:pageopacity="0.0"
     inkscape:pagecheckerboard="0"
     showgrid="false"
     inkscape:zoom="0.83046875"
     inkscape:cx="-21.072437"
     inkscape:cy="-198.68297"
     inkscape:window-width="3440"
     inkscape:window-height="1377"
     inkscape:window-x="-8"
     inkscape:window-y="-8"
     inkscape:window-maximized="1"
     inkscape:current-layer="g182" /><g
     id="g182"
     inkscape:groupmode="layer"
     inkscape:label="icons"
     transform="matrix(1.3333333,0,0,-1.3333333,-1052.666,564.41768)"><path
       d="m 789.49955,369.31327 c 0,29.82 24.18,54 54,54 29.82,0 54,-24.18 54,-54 0,-29.82 -24.18,-54 -54,-54 -29.82,0 -54,24.18 -54,54 z"
       style="fill:#8dc63f;fill-opacity:1;fill-rule:evenodd;stroke:none"
       id="path342" /><g
       id="g344"
       transform="translate(82.819551,-94.846726)"><g
         id="g346"
         clip-path="url(#clipPath350-1)"><g
           id="g352"
           transform="matrix(0.64,-3.77e-7,-7.54e-7,1,737.64,428.16)"><g
             id="g354"
             transform="scale(0.18285,0.11722)"><g
               id="g356"
               clip-path="url(#clipPath360-9)"><g
                 id="g362"><g
                   id="g364"><g
                     id="g366" /></g><path
                   d="m 106.66,523.54 c -0.89,49.78 37.33,89.78 87.11,90.67 50.67,1.77 92.44,-38.23 92.44,-88.89 0.89,-48.89 -38.22,-89.78 -87.11,-90.67 -51.55,-0.89 -92.44,38.22 -92.44,88.89 z"
                   style="fill:#ffffff;fill-opacity:1;fill-rule:evenodd;stroke:none"
                   id="path368" /><path
                   d="m 382.21,312.87 c -32,31.11 -63.11,64 -95.11,94.23 -7.11,7.11 -18.66,10.66 -28.44,11.55 -9.78,0.89 -18.67,0.89 -27.56,0.89 -34.66,0 -34.66,0 -34.66,0 0,0 0,0 0,0 -34.67,0 -34.67,0 -34.67,0 -8.89,0 -17.78,0 -27.56,-0.89 -9.77,-0.89 -21.33,-4.44 -28.44,-11.55 C 73.769,376.87 42.658,343.98 10.658,312.87 -7.1202,295.1 0.87979,282.65 15.102,268.43 c 14.222,-15.11 28.444,-24.89 46.222,-5.33 13.334,14.22 26.667,29.33 39.996,44.44 2.67,-1.78 6.23,-3.56 8.89,-4.44 0,-9.78 0,-18.67 0,-28.45 0,-80 0,-160 -0.89,-239.999 0,-25.7782 10.67,-34.667113 35.56,-33.7782 24,0 33.78,9.7782 33.78,32.8892 -0.89,42.666 0,85.328 0,130.668 6.22,-0.89 12.44,-0.89 17.78,-0.89 0,0 0,0 0,0 0,0 0,0 0,0 0,0 0,0 0,0 0,0 0,0 0,0 5.33,0 11.55,0 17.77,0.89 0,-45.34 0.89,-88.002 0,-130.668 0,-23.111 9.78,-32.8892 33.78,-32.8892 24.89,-0.888913 35.56,8 35.56,33.7782 -0.89,79.999 -0.89,159.999 -0.89,239.999 0,9.78 0,18.67 0,28.45 2.66,0.88 6.22,2.66 8.89,4.44 13.33,-15.11 26.66,-30.22 40,-44.44 17.77,-19.56 32,-9.78 46.22,5.33 14.22,14.22 22.22,26.67 4.44,44.44 z"
                   style="fill:#ffffff;fill-opacity:1;fill-rule:evenodd;stroke:none"
                   id="path370" /></g></g></g></g></g></g></g></svg>
