<?xml version="1.0" encoding="UTF-8" standalone="no"?>
<!-- Created with Inkscape (http://www.inkscape.org/) -->

<svg
   version="1.1"
   id="svg176"
   xml:space="preserve"
   width="144"
   height="144"
   viewBox="0 0 144 144"
   sodipodi:docname="elderly.svg"
   inkscape:version="1.1.2 (b8e25be833, 2022-02-05)"
   xmlns:inkscape="http://www.inkscape.org/namespaces/inkscape"
   xmlns:sodipodi="http://sodipodi.sourceforge.net/DTD/sodipodi-0.dtd"
   xmlns="http://www.w3.org/2000/svg"
   xmlns:svg="http://www.w3.org/2000/svg"><defs
     id="defs180"><clipPath
       clipPathUnits="userSpaceOnUse"
       id="clipPath190"><path
         d="M 0,1.2207e-4 H 960 V 540.00012 H 0 Z"
         clip-rule="evenodd"
         id="path188" /></clipPath><clipPath
       clipPathUnits="userSpaceOnUse"
       id="clipPath202"><path
         d="m 40.68,443.76 h 69.96 v 57 H 40.68 Z"
         clip-rule="evenodd"
         id="path200" /></clipPath><clipPath
       clipPathUnits="userSpaceOnUse"
       id="clipPath212"><path
         d="M 0,0 H 243.55 V 199.14 H 0 Z"
         id="path210" /></clipPath><clipPath
       clipPathUnits="userSpaceOnUse"
       id="clipPath230"><path
         d="m 182.76,432.6 h 70.08 v 71.28 h -70.08 z"
         clip-rule="evenodd"
         id="path228" /></clipPath><clipPath
       clipPathUnits="userSpaceOnUse"
       id="clipPath240"><path
         d="M 0,0 H 165.36 V 168.02 H 0 Z"
         id="path238" /></clipPath><clipPath
       clipPathUnits="userSpaceOnUse"
       id="clipPath262"><path
         d="m 320.4,439.8 h 60 v 57 h -60 z"
         clip-rule="evenodd"
         id="path260" /></clipPath><clipPath
       clipPathUnits="userSpaceOnUse"
       id="clipPath272"><path
         d="M 0,0 H 184.89 V 175.11 H 0 Z"
         id="path270" /></clipPath><clipPath
       clipPathUnits="userSpaceOnUse"
       id="clipPath292"><path
         d="m 450.72,443.04 h 58.56 v 50.4 h -58.56 z"
         clip-rule="evenodd"
         id="path290" /></clipPath><clipPath
       clipPathUnits="userSpaceOnUse"
       id="clipPath302"><path
         d="M 0,0 H 140.46 V 120.88 H 0 Z"
         id="path300" /></clipPath><clipPath
       clipPathUnits="userSpaceOnUse"
       id="clipPath320"><path
         d="M 589.08,428.16 H 630 v 72 h -40.92 z"
         clip-rule="evenodd"
         id="path318" /></clipPath><clipPath
       clipPathUnits="userSpaceOnUse"
       id="clipPath330"><path
         d="M 0,0 H 378.68 V 664.88 H 0 Z"
         id="path328" /></clipPath><clipPath
       clipPathUnits="userSpaceOnUse"
       id="clipPath350"><path
         d="m 737.64,428.16 h 46.08 v 72 h -46.08 z"
         clip-rule="evenodd"
         id="path348" /></clipPath><clipPath
       clipPathUnits="userSpaceOnUse"
       id="clipPath360"><path
         d="M 0,0 H 393.76 V 614.22 H 0 Z"
         id="path358" /></clipPath><clipPath
       clipPathUnits="userSpaceOnUse"
       id="clipPath320-8"><path
         d="M 589.08,428.16 H 630 v 72 h -40.92 z"
         clip-rule="evenodd"
         id="path318-7" /></clipPath><clipPath
       clipPathUnits="userSpaceOnUse"
       id="clipPath330-2"><path
         d="M 0,0 H 378.68 V 664.88 H 0 Z"
         id="path328-0" /></clipPath><clipPath
       clipPathUnits="userSpaceOnUse"
       id="clipPath320-6"><path
         d="M 589.08,428.16 H 630 v 72 h -40.92 z"
         clip-rule="evenodd"
         id="path318-9" /></clipPath><clipPath
       clipPathUnits="userSpaceOnUse"
       id="clipPath330-9"><path
         d="M 0,0 H 378.68 V 664.88 H 0 Z"
         id="path328-9" /></clipPath></defs><sodipodi:namedview
     id="namedview178"
     pagecolor="#ffffff"
     bordercolor="#666666"
     borderopacity="1.0"
     inkscape:pageshadow="2"
     inkscape:pageopacity="0.0"
     inkscape:pagecheckerboard="0"
     showgrid="false"
     inkscape:zoom="0.83046875"
     inkscape:cx="-699.00282"
     inkscape:cy="-356.42521"
     inkscape:window-width="3440"
     inkscape:window-height="1377"
     inkscape:window-x="-8"
     inkscape:window-y="-8"
     inkscape:window-maximized="1"
     inkscape:current-layer="g182" /><g
     id="g182"
     inkscape:groupmode="layer"
     inkscape:label="icons"
     transform="matrix(1.3333333,0,0,-1.3333333,-849.16651,563.21355)"><path
       d="m 636.8749,368.41017 c 0,29.82 24.18,54 54,54 29.82,0 54,-24.18 54,-54 0,-29.82 -24.18,-54 -54,-54 -29.82,0 -54,24.18 -54,54 z"
       style="fill:#8dc63f;fill-opacity:1;fill-rule:evenodd;stroke:none"
       id="path312" /><g
       id="g314"
       transform="translate(81.2749,-95.749831)"><g
         id="g316"
         clip-path="url(#clipPath320-6)"><g
           id="g322"
           transform="matrix(0.56833,-3.77e-7,-7.54e-7,1,589.08,428.16)"><g
             id="g324"
             transform="scale(0.19013,0.10829)"><g
               id="g326"
               clip-path="url(#clipPath330-9)"><g
                 id="g332"><g
                   id="g334"><g
                     id="g336" /></g><path
                   d="m 221.35,537.77 c 35.56,0 64,28.45 64,63.12 0,35.55 -28.44,64 -64,64 -34.67,0 -63.11,-28.45 -63.11,-64 0,-34.67 28.44,-63.12 63.11,-63.12 z"
                   style="fill:#ffffff;fill-opacity:1;fill-rule:nonzero;stroke:none"
                   id="path338" /><path
                   d="m 372.46,38.219 c 0,251.551 0,251.551 0,251.551 2.67,3.56 3.56,8.89 1.78,13.34 -7.11,12.44 -14.22,21.33 -21.33,28.44 1.77,2.67 0.88,5.34 -4.45,8.89 -29.33,22.22 -65.78,57.78 -79.11,74.67 C 255.13,432 237.35,472 202.68,518.22 168.91,563.55 92.462,546.66 92.462,546.66 7.1283,534.22 3.5728,512 0.017212,500.44 c 0,-8 -0.888882,-65.78 3.555588,-109.33 4.4444,-43.56 51.5552,-45.34 41.7782,12.44 0,19.56 0,40 0,53.34 0,13.33 -2.667,34.66 13.333,36.44 25.778,1.78 14.222,-33.78 14.222,-33.78 0,0 -23.111,-70.22 -26.667,-100.44 C 43.573,328 49.795,206.22 47.128,184 44.462,161.77 22.239,95.997 8.9061,50.663 -4.4272,6.2189 54.239,-1.7811 67.573,30.219 c 2.666,8 45.337,136.001 46.227,160.891 0,22.22 1.77,88 1.77,88 0,0 39.11,-53.34 45.34,-74.67 7.11,-21.33 4.44,-125.332 7.11,-171.554 2.66,-46.223 64.89,-40.8893 61.33,4.444 0,16.889 1.78,159.11 -8,193.78 -10.67,35.55 -55.11,96.89 -52.44,109.33 3.55,12.45 16,44.45 19.55,62.22 3.56,17.78 14.22,13.34 16.89,9.78 2.67,-3.55 56.89,-77.33 87.11,-85.33 -9.78,-11.56 -15.11,-24 -16,-26.67 -2.67,-5.33 0,-11.55 6.22,-14.22 0.89,-0.89 2.67,-0.89 3.56,-0.89 4.44,0 8.89,2.67 10.67,7.11 3.55,8.89 16,28.45 27.55,28.45 8.89,0.88 19.56,-9.78 30.22,-28.45 0.89,-0.89 1.78,-2.67 2.67,-3.55 0,-250.671 0,-250.671 0,-250.671 -3.56,-1.778 -5.33,-6.222 -5.33,-10.667 0,-3.555 0,-3.555 0,-3.555 0,-4.445 0,-4.445 0,-4.445 0,-18.66644 0,-18.66644 0,-18.66644 25.77,0 25.77,0 25.77,0 0,18.66644 0,18.66644 0,18.66644 0,4.445 0,4.445 0,4.445 0,3.555 0,3.555 0,3.555 0,4.445 -2.66,8.889 -5.33,10.667 z"
                   style="fill:#ffffff;fill-opacity:1;fill-rule:nonzero;stroke:none"
                   id="path340" /></g></g></g></g></g></g></g></svg>
