<?xml version="1.0" encoding="UTF-8" standalone="no"?>
<!-- Created with Inkscape (http://www.inkscape.org/) -->

<svg
   version="1.1"
   id="svg176"
   xml:space="preserve"
   width="144"
   height="144"
   viewBox="0 0 144 144"
   sodipodi:docname="news.svg"
   inkscape:version="1.1.2 (b8e25be833, 2022-02-05)"
   xmlns:inkscape="http://www.inkscape.org/namespaces/inkscape"
   xmlns:sodipodi="http://sodipodi.sourceforge.net/DTD/sodipodi-0.dtd"
   xmlns="http://www.w3.org/2000/svg"
   xmlns:svg="http://www.w3.org/2000/svg"><defs
     id="defs180"><clipPath
       clipPathUnits="userSpaceOnUse"
       id="clipPath190"><path
         d="M 0,1.2207e-4 H 960 V 540.00012 H 0 Z"
         clip-rule="evenodd"
         id="path188" /></clipPath><clipPath
       clipPathUnits="userSpaceOnUse"
       id="clipPath202"><path
         d="m 40.68,443.76 h 69.96 v 57 H 40.68 Z"
         clip-rule="evenodd"
         id="path200" /></clipPath><clipPath
       clipPathUnits="userSpaceOnUse"
       id="clipPath212"><path
         d="M 0,0 H 243.55 V 199.14 H 0 Z"
         id="path210" /></clipPath><clipPath
       clipPathUnits="userSpaceOnUse"
       id="clipPath230"><path
         d="m 182.76,432.6 h 70.08 v 71.28 h -70.08 z"
         clip-rule="evenodd"
         id="path228" /></clipPath><clipPath
       clipPathUnits="userSpaceOnUse"
       id="clipPath240"><path
         d="M 0,0 H 165.36 V 168.02 H 0 Z"
         id="path238" /></clipPath><clipPath
       clipPathUnits="userSpaceOnUse"
       id="clipPath262"><path
         d="m 320.4,439.8 h 60 v 57 h -60 z"
         clip-rule="evenodd"
         id="path260" /></clipPath><clipPath
       clipPathUnits="userSpaceOnUse"
       id="clipPath272"><path
         d="M 0,0 H 184.89 V 175.11 H 0 Z"
         id="path270" /></clipPath><clipPath
       clipPathUnits="userSpaceOnUse"
       id="clipPath292"><path
         d="m 450.72,443.04 h 58.56 v 50.4 h -58.56 z"
         clip-rule="evenodd"
         id="path290" /></clipPath><clipPath
       clipPathUnits="userSpaceOnUse"
       id="clipPath302"><path
         d="M 0,0 H 140.46 V 120.88 H 0 Z"
         id="path300" /></clipPath><clipPath
       clipPathUnits="userSpaceOnUse"
       id="clipPath320"><path
         d="M 589.08,428.16 H 630 v 72 h -40.92 z"
         clip-rule="evenodd"
         id="path318" /></clipPath><clipPath
       clipPathUnits="userSpaceOnUse"
       id="clipPath330"><path
         d="M 0,0 H 378.68 V 664.88 H 0 Z"
         id="path328" /></clipPath><clipPath
       clipPathUnits="userSpaceOnUse"
       id="clipPath350"><path
         d="m 737.64,428.16 h 46.08 v 72 h -46.08 z"
         clip-rule="evenodd"
         id="path348" /></clipPath><clipPath
       clipPathUnits="userSpaceOnUse"
       id="clipPath360"><path
         d="M 0,0 H 393.76 V 614.22 H 0 Z"
         id="path358" /></clipPath><clipPath
       clipPathUnits="userSpaceOnUse"
       id="clipPath262-0"><path
         d="m 320.4,439.8 h 60 v 57 h -60 z"
         clip-rule="evenodd"
         id="path260-7" /></clipPath><clipPath
       clipPathUnits="userSpaceOnUse"
       id="clipPath272-8"><path
         d="M 0,0 H 184.89 V 175.11 H 0 Z"
         id="path270-6" /></clipPath></defs><sodipodi:namedview
     id="namedview178"
     pagecolor="#ffffff"
     bordercolor="#666666"
     borderopacity="1.0"
     inkscape:pageshadow="2"
     inkscape:pageopacity="0.0"
     inkscape:pagecheckerboard="0"
     showgrid="false"
     inkscape:zoom="0.83046875"
     inkscape:cx="-171.58984"
     inkscape:cy="-71.044214"
     inkscape:window-width="3440"
     inkscape:window-height="1377"
     inkscape:window-x="-8"
     inkscape:window-y="-8"
     inkscape:window-maximized="1"
     inkscape:current-layer="g182" /><g
     id="g182"
     inkscape:groupmode="layer"
     inkscape:label="icons"
     transform="matrix(1.3333333,0,0,-1.3333333,-479.49576,583.68391)"><path
       d="m 359.62183,383.76294 c 0,29.82 24.18,54 54,54 29.82,0 54,-24.18 54,-54 0,-29.82 -24.18,-54 -54,-54 -29.82,0 -54,24.18 -54,54 z"
       style="fill:#4472c4;fill-opacity:1;fill-rule:evenodd;stroke:none"
       id="path254" /><g
       id="g256"
       transform="translate(63.221835,-84.477055)"><g
         id="g258"
         clip-path="url(#clipPath262-0)"><g
           id="g264"
           transform="matrix(0.83333,-3.77e-7,-3.77e-7,0.79167,320.4,439.8)"><g
             id="g266"
             transform="scale(0.38942,0.41118)"><g
               id="g268"
               clip-path="url(#clipPath272-8)"><g
                 id="g274"><g
                   id="g276"><g
                     id="g278" /></g><path
                   d="m 184.01,152.01 c 0,20.45 0,20.45 0,20.45 0,1.78 -0.89,2.67 -2.67,2.67 -20.44,0 -20.44,0 -20.44,0 z"
                   style="fill:#ffffff;fill-opacity:1;fill-rule:nonzero;stroke:none"
                   id="path280" /><path
                   d="m 164.45,152.01 c -1.78,0 -2.67,0.89 -2.67,2.67 0,20.45 0,20.45 0,20.45 -159.1062,0 -159.1062,0 -159.1062,0 -1.77776,0 -2.6666436,-0.89 -2.6666436,-2.67 0,-168.8896 0,-168.8896 0,-168.8896 0,-0.8889 0.8888836,-2.66665 2.6666436,-2.66665 179.5562,0 179.5562,0 179.5562,0 0.89,0 1.78,1.77775 1.78,2.66665 0,148.4396 0,148.4396 0,148.4396 z m -26.67,-3.55 c 4.45,0 8,-1.78 8.89,-2.67 0.89,-0.89 0,-1.78 0,-1.78 -1.77,-2.66 -1.77,-2.66 -1.77,-2.66 0,-0.89 -0.89,-0.89 -1.78,-0.89 0,0 -2.67,2.67 -5.34,2.67 -1.77,0 -2.66,-0.89 -2.66,-2.67 0,-0.89 0.89,-2.67 4.44,-3.56 3.56,-0.89 8,-3.55 8,-8.89 0,-4.44 -3.55,-8.88 -9.78,-8.88 -4.44,0 -8,2.66 -8.88,3.55 0,0 0,0 0,0.89 1.77,3.56 1.77,3.56 1.77,3.56 0,0 0.89,0 1.78,0 0,0 2.67,-1.78 5.33,-1.78 1.78,0 2.67,0.89 2.67,1.78 0,1.77 -0.89,3.55 -3.55,4.44 -3.56,0.89 -8,3.56 -8,8.89 0,3.55 2.66,8 8.88,8 z m -45.328,-0.89 c 4.444,0 4.444,0 4.444,0 0.889,0 0.889,0 0.889,0 3.555,-14.22 3.555,-14.22 3.555,-14.22 0,0 0,0 0,0 6.22,14.22 6.22,14.22 6.22,14.22 0,0.89 0.89,0.89 0.89,0.89 0.89,0 0.89,0 0.89,0 0,0 0.89,0 0.89,-0.89 6.22,-14.22 6.22,-14.22 6.22,-14.22 0,0 0,0 0,0 3.56,14.22 3.56,14.22 3.56,14.22 0,0 0,0 0.89,0 4.44,0 4.44,0 4.44,0 0.89,0 0.89,0 0.89,-0.89 -8,-26.67 -8,-26.67 -8,-26.67 0,-0.88 0,-0.88 -0.89,-0.88 0,0 0,0 0,0 -0.89,0 -0.89,0 -0.89,0.88 -7.11,16 -7.11,16 -7.11,16 -0.89,0 -0.89,0 -0.89,0 -7.11,-16 -7.11,-16 -7.11,-16 0,-0.88 0,-0.88 -0.89,-0.88 0,0 0,0 0,0 -0.887,0 -0.887,0 -0.887,0.88 -8,26.67 -8,26.67 -8,26.67 0,0.89 0,0.89 0.889,0.89 z m -22.223,0 c 0,0 0.889,0 0.889,0 16.889,0 16.889,0 16.889,0 0.889,0 0.889,0 0.889,0 0,-4.44 0,-4.44 0,-4.44 0,-0.89 0,-0.89 -0.889,-0.89 -10.667,0 -10.667,0 -10.667,0 0,-5.34 0,-5.34 0,-5.34 8.889,0 8.889,0 8.889,0 0,0 0.889,0 0.889,-0.89 0,-4.44 0,-4.44 0,-4.44 0,0 -0.889,-0.89 -0.889,-0.89 -8.889,0 -8.889,0 -8.889,0 0,-5.33 0,-5.33 0,-5.33 10.667,0 10.667,0 10.667,0 0.889,0 0.889,0 0.889,-0.89 0,-3.56 0,-3.56 0,-3.56 0,-0.89 0,-0.89 -0.889,-0.89 -16.889,0 -16.889,0 -16.889,0 0,0 -0.889,0 -0.889,0.89 z m -30.222,0.89 c 0.889,0 0.889,0 0.889,0 16,-16 16,-16 16,-16 0,0 0,0 0,0 0,15.11 0,15.11 0,15.11 0,0 0.889,0 0.889,0 5.333,0 5.333,0 5.333,0 0,0 0.889,0 0.889,0 0,-27.56 0,-27.56 0,-27.56 0,0 -0.889,-0.88 -0.889,-0.88 -0.889,0 -0.889,0 -0.889,0 0,0 0,0 -0.889,0 -15.111,16 -15.111,16 -15.111,16 -0.889,0 -0.889,0 -0.889,0 0,-14.23 0,-14.23 0,-14.23 0,-0.89 0,-0.89 0,-0.89 -5.333,0 -5.333,0 -5.333,0 0,0 -0.889,0 -0.889,0.89 0,26.67 0,26.67 0,26.67 0,0.89 0.889,0.89 0.889,0.89 z M 56.896,30.237 c -35.556,0 -35.556,0 -35.556,0 -0.888,0 -1.777,0.889 -1.777,1.778 0,0.889 0.889,1.778 1.777,1.778 35.556,0 35.556,0 35.556,0 0.889,0 1.778,-0.889 1.778,-1.778 0,-0.889 -0.889,-1.778 -1.778,-1.778 z m 0,24.889 c -35.556,0 -35.556,0 -35.556,0 -0.888,0 -1.777,0.889 -1.777,1.778 0,0.889 0.889,1.778 1.777,1.778 35.556,0 35.556,0 35.556,0 0.889,0 1.778,-0.889 1.778,-1.778 0,-0.889 -0.889,-1.778 -1.778,-1.778 z m 0,24.889 c -35.556,0 -35.556,0 -35.556,0 -0.888,0 -1.777,0.889 -1.777,1.778 0,0.889 0.889,1.777 1.777,1.777 35.556,0 35.556,0 35.556,0 0.889,0 1.778,-0.888 1.778,-1.777 0,-0.889 -0.889,-1.778 -1.778,-1.778 z M 108.45,30.237 c -35.554,0 -35.554,0 -35.554,0 -0.889,0 -1.778,0.889 -1.778,1.778 0,0.889 0.889,1.778 1.778,1.778 35.554,0 35.554,0 35.554,0 0.89,0 1.78,-0.889 1.78,-1.778 0,-0.889 -0.89,-1.778 -1.78,-1.778 z m 0,24.889 c -35.554,0 -35.554,0 -35.554,0 -0.889,0 -1.778,0.889 -1.778,1.778 0,0.889 0.889,1.778 1.778,1.778 35.554,0 35.554,0 35.554,0 0.89,0 1.78,-0.889 1.78,-1.778 0,-0.889 -0.89,-1.778 -1.78,-1.778 z m 0,24.889 c -35.554,0 -35.554,0 -35.554,0 -0.889,0 -1.778,0.889 -1.778,1.778 0,0.889 0.889,1.777 1.778,1.777 35.554,0 35.554,0 35.554,0 0.89,0 1.78,-0.888 1.78,-1.777 0,-0.889 -0.89,-1.778 -1.78,-1.778 z m 51.56,-49.778 c -35.56,0 -35.56,0 -35.56,0 -0.89,0 -1.78,0.889 -1.78,1.778 0,0.889 0.89,1.778 1.78,1.778 35.56,0 35.56,0 35.56,0 1.77,0 1.77,-0.889 1.77,-1.778 0,-0.889 0,-1.778 -1.77,-1.778 z m 0,24.889 c -35.56,0 -35.56,0 -35.56,0 -0.89,0 -1.78,0.889 -1.78,1.778 0,0.889 0.89,1.778 1.78,1.778 35.56,0 35.56,0 35.56,0 1.77,0 1.77,-0.889 1.77,-1.778 0,-0.889 0,-1.778 -1.77,-1.778 z m 0,24.889 c -35.56,0 -35.56,0 -35.56,0 -0.89,0 -1.78,0.889 -1.78,1.778 0,0.889 0.89,1.777 1.78,1.777 35.56,0 35.56,0 35.56,0 1.77,0 1.77,-0.888 1.77,-1.777 0,-0.889 0,-1.778 -1.77,-1.778 z m 2.66,24.885 c -141.33,0 -141.33,0 -141.33,0 -0.888,0 -1.777,0.89 -1.777,1.78 0,0.89 0.889,1.78 1.777,1.78 141.33,0 141.33,0 141.33,0 0.89,0 1.78,-0.89 1.78,-1.78 0,-0.89 -0.89,-1.78 -1.78,-1.78 z"
                   style="fill:#ffffff;fill-opacity:1;fill-rule:nonzero;stroke:none"
                   id="path282" /></g></g></g></g></g></g></g></svg>
